<svg version="1.2" baseProfile="tiny" id="Layer_1" xmlns="http://www.w3.org/2000/svg" xmlns:xlink="http://www.w3.org/1999/xlink"
	 x="0px" y="0px" width="150px" height="150px" viewBox="0 0 150 150" xml:space="preserve">
<g>
	<path fill="#4D4D4D" d="M0.911,145.21H0.385c0-8.17,0-16.339,0-24.509h13.219v0.526H0.911v11.43h11.22v0.561H0.911V145.21z"/>
	<path fill="#4D4D4D" d="M28.99,145.21h-0.526v-24.264v-0.28h0.281h8.205c9.818,0,9.818,14.34,0,14.34h-3.962l11.29,10.203h-0.806
		l-11.29-10.203v-0.526h4.769c9.116,0,9.116-13.253,0-13.253H28.99V145.21z"/>
	<path fill="#4D4D4D" d="M47.569,144.684h13.044v0.526H47.078h-0.07v-24.509h13.534v0.526H47.569v11.43h12.693v0.561H47.569V144.684
		z"/>
	<path fill="#4D4D4D" d="M70.246,145.21h-3.541v-24.509h14.621v3.542H70.246v6.907h9.818v3.576h-9.818V145.21z"/>
	<path fill="#4D4D4D" d="M85.6,124.067c2.244-2.279,5.4-3.716,8.836-3.716c3.471,0,6.591,1.438,8.871,3.716
		c2.208,2.279,3.646,5.4,3.646,8.871c0,3.471-1.438,6.591-3.646,8.871c-2.28,2.314-5.4,3.717-8.871,3.717
		c-3.436,0-6.592-1.403-8.836-3.717c-2.209-2.279-3.647-5.4-3.647-8.871C81.953,129.467,83.391,126.346,85.6,124.067z
		 M100.782,126.592c-1.647-1.648-3.927-2.664-6.346-2.664c-2.42,0-4.664,1.017-6.276,2.664c-1.613,1.613-2.629,3.857-2.629,6.347
		c0,2.489,1.017,4.733,2.629,6.346c1.613,1.648,3.857,2.665,6.276,2.665c2.419,0,4.699-1.017,6.346-2.665
		c1.578-1.613,2.594-3.822,2.594-6.346C103.376,130.414,102.36,128.205,100.782,126.592z"/>
	<path fill="#4D4D4D" d="M113.995,132.763h4.138c2.98,0,4.453-2.139,4.453-4.277c0-2.104-1.473-4.243-4.453-4.243h-5.435v20.967
		h-3.507v-24.544h8.942c5.329,0,7.995,3.927,7.995,7.819c0,3.471-2.139,6.767-6.346,7.503l7.748,9.221h-4.593l-8.942-10.764V132.763
		z"/>
	<path fill="#4D4D4D" d="M131.279,145.21h-3.542v-24.544h2.875l8.099,11.921l8.099-11.921h2.805v24.544h-3.505v-17.286l-6.418,9.537
		h-1.997l-6.416-9.537V145.21z"/>
	<path fill="#4D4D4D" d="M71.388,57.291c9.813,29.77,8.19,52.817,8.19,52.817s15.134-31.256,8.19-52.817s-8.19-52.817-8.19-52.817
		S65.803,36.56,71.388,57.291z"/>
	<path fill="#4D4D4D" d="M58.445,72.597c6.969,21.143,5.816,37.511,5.816,37.511S75.01,87.91,70.078,72.597
		s-5.816-37.511-5.816-37.511S54.478,57.873,58.445,72.597z"/>
	<rect x="20.262" y="120.701" fill="#4D4D4D" width="0.526" height="24.509"/>
</g>
<g>
</g>
<g>
</g>
<g>
</g>
<g>
</g>
<g>
</g>
<g>
</g>
</svg>