<svg version="1.2" baseProfile="tiny" id="Layer_1" xmlns="http://www.w3.org/2000/svg" xmlns:xlink="http://www.w3.org/1999/xlink"
	 x="0px" y="0px" width="350px" height="80px" viewBox="0 0 350 80" xml:space="preserve">
<g>
	<path fill="#4D4D4D" d="M28.85,75.495h-1.547V3.321h1.65l29.9,44.232L88.857,3.321h1.65v72.173H88.96V5.693L59.575,49.409h-1.34
		L28.85,5.693V75.495z"/>
	<path fill="#4D4D4D" d="M107.003,13.219c6.599-6.805,15.878-10.929,25.982-10.929c10.207,0,19.384,4.124,26.086,10.929
		c6.599,6.702,10.826,15.981,10.826,26.189c0,10.208-4.227,19.487-10.826,26.189c-6.702,6.805-15.878,10.929-26.086,10.929
		c-10.104,0-19.384-4.124-25.982-10.929c-6.599-6.702-10.826-15.981-10.826-26.189C96.177,29.201,100.404,19.921,107.003,13.219z
		 M157.936,14.457C151.544,7.961,142.677,3.94,132.985,3.94c-9.692,0-18.456,4.021-24.848,10.517
		c-6.289,6.393-10.31,15.156-10.31,24.951c0,9.795,4.021,18.559,10.31,24.951c6.392,6.496,15.156,10.517,24.848,10.517
		c9.692,0,18.559-4.021,24.951-10.517c6.289-6.393,10.207-15.156,10.207-24.951C168.144,29.613,164.226,20.849,157.936,14.457z"/>
	<path fill="#4D4D4D" d="M241.245,25.386c-1.65-3.815-4.021-7.217-6.805-10.104c-6.083-6.289-14.538-10.104-23.817-10.104
		c-9.279,0-17.734,3.815-23.817,10.104c-6.083,6.289-9.898,14.847-9.898,24.23c0,9.486,3.815,18.043,9.898,24.23
		c6.083,6.289,14.538,10.207,23.817,10.207c9.279,0,17.734-3.918,23.817-10.207c2.784-2.887,5.155-6.186,6.805-10.001h1.753
		c-1.753,4.227-4.331,8.042-7.424,11.238c-6.393,6.599-15.156,10.62-24.951,10.62c-9.795,0-18.559-4.021-24.951-10.62
		c-6.289-6.496-10.31-15.466-10.31-25.467c0-9.898,4.021-18.868,10.31-25.364c6.393-6.599,15.156-10.62,24.951-10.62
		c9.795,0,18.559,4.021,24.951,10.62c3.093,3.196,5.671,7.011,7.424,11.238H241.245z"/>
	<path fill="#4D4D4D" d="M259.803,13.219c6.599-6.805,15.878-10.929,25.982-10.929c10.207,0,19.384,4.124,26.086,10.929
		c6.599,6.702,10.826,15.981,10.826,26.189c0,10.208-4.227,19.487-10.826,26.189c-6.702,6.805-15.878,10.929-26.086,10.929
		c-10.104,0-19.384-4.124-25.982-10.929c-6.599-6.702-10.826-15.981-10.826-26.189C248.977,29.201,253.204,19.921,259.803,13.219z
		 M310.737,14.457C304.344,7.961,295.477,3.94,285.785,3.94c-9.692,0-18.456,4.021-24.848,10.517
		c-6.289,6.393-10.31,15.156-10.31,24.951c0,9.795,4.021,18.559,10.31,24.951c6.393,6.496,15.156,10.517,24.848,10.517
		c9.692,0,18.559-4.021,24.951-10.517c6.289-6.393,10.207-15.156,10.207-24.951C320.944,29.613,317.026,20.849,310.737,14.457z"/>
</g>
<g>
</g>
<g>
</g>
<g>
</g>
<g>
</g>
<g>
</g>
<g>
</g>
</svg>