<svg version="1.2" baseProfile="tiny" id="Layer_1" xmlns="http://www.w3.org/2000/svg" xmlns:xlink="http://www.w3.org/1999/xlink"
	 x="0px" y="0px" width="150px" height="150px" viewBox="0 0 150 150" xml:space="preserve">
<g>
	<path fill="#4D4D4D" d="M50.071,144.863H49.55v-24.299h0.555l10.067,14.892l10.101-14.892h0.555v24.299h-0.521v-23.5l-9.893,14.718
		h-0.451l-9.893-14.718V144.863z"/>
	<path fill="#4D4D4D" d="M76.382,123.897c2.222-2.291,5.346-3.679,8.747-3.679c3.437,0,6.526,1.388,8.782,3.679
		c2.222,2.256,3.645,5.38,3.645,8.817c0,3.437-1.423,6.561-3.645,8.817c-2.256,2.291-5.346,3.68-8.782,3.68
		c-3.402,0-6.526-1.388-8.747-3.68c-2.222-2.256-3.645-5.38-3.645-8.817C72.738,129.277,74.161,126.153,76.382,123.897z
		 M93.53,124.314c-2.152-2.187-5.137-3.541-8.4-3.541c-3.263,0-6.213,1.354-8.366,3.541c-2.117,2.152-3.471,5.103-3.471,8.4
		c0,3.298,1.354,6.248,3.471,8.4c2.152,2.187,5.103,3.541,8.366,3.541c3.263,0,6.248-1.354,8.4-3.541
		c2.117-2.152,3.436-5.103,3.436-8.4C96.967,129.416,95.648,126.466,93.53,124.314z"/>
	<path fill="#4D4D4D" d="M121.578,127.993c-0.555-1.284-1.354-2.43-2.291-3.402c-2.048-2.117-4.894-3.402-8.019-3.402
		c-3.124,0-5.97,1.284-8.019,3.402c-2.048,2.117-3.332,4.999-3.332,8.157c0,3.194,1.284,6.075,3.332,8.157
		c2.048,2.117,4.894,3.436,8.019,3.436c3.124,0,5.971-1.319,8.019-3.436c0.937-0.972,1.736-2.083,2.291-3.367h0.59
		c-0.59,1.423-1.458,2.708-2.499,3.784c-2.152,2.222-5.103,3.575-8.4,3.575c-3.298,0-6.248-1.354-8.4-3.575
		c-2.117-2.187-3.471-5.207-3.471-8.574c0-3.332,1.354-6.352,3.471-8.539c2.152-2.222,5.103-3.575,8.4-3.575
		c3.298,0,6.248,1.354,8.4,3.575c1.041,1.076,1.909,2.36,2.499,3.784H121.578z"/>
	<path fill="#4D4D4D" d="M127.826,123.897c2.222-2.291,5.346-3.679,8.747-3.679c3.437,0,6.526,1.388,8.782,3.679
		c2.222,2.256,3.645,5.38,3.645,8.817c0,3.437-1.423,6.561-3.645,8.817c-2.256,2.291-5.346,3.68-8.782,3.68
		c-3.402,0-6.526-1.388-8.747-3.68c-2.222-2.256-3.645-5.38-3.645-8.817C124.181,129.277,125.604,126.153,127.826,123.897z
		 M144.973,124.314c-2.152-2.187-5.137-3.541-8.4-3.541c-3.263,0-6.213,1.354-8.366,3.541c-2.117,2.152-3.471,5.103-3.471,8.4
		c0,3.298,1.354,6.248,3.471,8.4c2.152,2.187,5.103,3.541,8.366,3.541c3.263,0,6.248-1.354,8.4-3.541
		c2.117-2.152,3.436-5.103,3.436-8.4C148.41,129.416,147.091,126.466,144.973,124.314z"/>
</g>
<g>
</g>
<g>
</g>
<g>
</g>
<g>
</g>
<g>
</g>
<g>
</g>
</svg>